<?xml version="1.0" encoding="UTF-8"?>
<!DOCTYPE svg PUBLIC "-//W3C//DTD SVG 1.1//EN" "http://www.w3.org/Graphics/SVG/1.1/DTD/svg11.dtd">
<svg xmlns="http://www.w3.org/2000/svg" version="1.1" width="666px" height="375px" style="shape-rendering:geometricPrecision; text-rendering:geometricPrecision; image-rendering:optimizeQuality; fill-rule:evenodd; clip-rule:evenodd" xmlns:xlink="http://www.w3.org/1999/xlink">
<g><path style="opacity:0.978" fill="#647a99" d="M 280.5,-0.5 C 281.833,-0.5 283.167,-0.5 284.5,-0.5C 284.423,0.749754 283.756,1.58309 282.5,2C 278.748,2.46175 275.248,3.62842 272,5.5C 271.617,4.94404 271.117,4.61071 270.5,4.5C 273.596,2.28526 276.929,0.618594 280.5,-0.5 Z"/></g>
<g><path style="opacity:1" fill="#6a809d" d="M 284.5,-0.5 C 286.5,-0.5 288.5,-0.5 290.5,-0.5C 290.5,1.83333 290.5,4.16667 290.5,6.5C 287.421,21.8356 278.754,32.6689 264.5,39C 259.344,40.9618 254.011,41.7951 248.5,41.5C 248.221,36.6734 248.887,32.0068 250.5,27.5C 251.643,27.0919 252.643,26.4252 253.5,25.5C 256.464,19.8833 259.798,14.5499 263.5,9.5C 264.992,6.67686 267.326,5.01019 270.5,4.5C 271.117,4.61071 271.617,4.94404 272,5.5C 275.248,3.62842 278.748,2.46175 282.5,2C 283.756,1.58309 284.423,0.749754 284.5,-0.5 Z"/></g>
<g><path style="opacity:0.974" fill="#eaf2f7" d="M 294.5,-0.5 C 296.833,-0.5 299.167,-0.5 301.5,-0.5C 320.493,6.65747 330.993,20.3241 333,40.5C 312.621,41.2201 299.121,31.8868 292.5,12.5C 292.15,7.9691 292.817,3.63577 294.5,-0.5 Z"/></g>
<g><path style="opacity:0.118" fill="#98aabc" d="M 290.5,-0.5 C 291.167,-0.5 291.833,-0.5 292.5,-0.5C 292.007,1.80562 291.674,4.13895 291.5,6.5C 291.167,6.5 290.833,6.5 290.5,6.5C 290.5,4.16667 290.5,1.83333 290.5,-0.5 Z"/></g>
<g><path style="opacity:0.331" fill="#c3d2de" d="M 292.5,-0.5 C 293.167,-0.5 293.833,-0.5 294.5,-0.5C 292.817,3.63577 292.15,7.9691 292.5,12.5C 291.539,10.7354 291.205,8.73535 291.5,6.5C 291.674,4.13895 292.007,1.80562 292.5,-0.5 Z"/></g>
<g><path style="opacity:1" fill="#637a99" d="M 263.5,9.5 C 259.798,14.5499 256.464,19.8833 253.5,25.5C 252.643,26.4252 251.643,27.0919 250.5,27.5C 252.912,19.9702 257.245,13.9702 263.5,9.5 Z"/></g>
<g><path style="opacity:0.998" fill="#ecf3f7" d="M 540.5,81.5 C 564.133,84.1333 578.133,97.1333 582.5,120.5C 582.449,122.1 582.116,123.6 581.5,125C 555.197,122.202 541.53,107.702 540.5,81.5 Z"/></g>
<g><path style="opacity:0.986" fill="#b1d0e2" d="M 123.5,165.5 C 141.83,166.331 154.997,174.998 163,191.5C 165.026,196.992 166.193,202.659 166.5,208.5C 139.814,206.481 125.481,192.148 123.5,165.5 Z"/></g>
<g><path style="opacity:0.979" fill="#e2fafb" d="M 352.5,186.5 C 366.138,187.472 373.472,194.805 374.5,208.5C 360.787,207.454 353.454,200.12 352.5,186.5 Z"/></g>
<g><path style="opacity:0.945" fill="#f4fcfd" d="M 618.5,207.5 C 620.5,207.5 622.5,207.5 624.5,207.5C 624.797,211.911 623.631,215.911 621,219.5C 616.205,223.147 611.039,226.147 605.5,228.5C 603.5,228.5 602.5,227.5 602.5,225.5C 604.717,216.622 610.05,210.622 618.5,207.5 Z"/></g>
<g><path style="opacity:0.952" fill="#b4d1e3" d="M 617.5,228.5 C 619.833,228.5 622.167,228.5 624.5,228.5C 623.174,241.826 615.841,249.159 602.5,250.5C 602.77,239.904 607.77,232.57 617.5,228.5 Z"/></g>
<g><path style="opacity:0.91" fill="#ebfbfc" d="M 433.5,260.5 C 433.5,263.833 433.5,267.167 433.5,270.5C 422.88,268.547 416.547,262.214 414.5,251.5C 415.741,248.856 417.741,248.023 420.5,249C 423.661,250.413 426.661,252.08 429.5,254C 431.734,255.638 433.067,257.805 433.5,260.5 Z"/></g>
<g><path style="opacity:1" fill="#7086a1" d="M 435.5,270.5 C 435.5,268.833 435.5,267.167 435.5,265.5C 439.315,255.359 446.648,249.693 457.5,248.5C 457.019,262.982 449.685,270.315 435.5,270.5 Z"/></g>
<g><path style="opacity:0.05" fill="#b1c9d5" d="M 433.5,260.5 C 434.931,261.78 435.598,263.447 435.5,265.5C 435.5,267.167 435.5,268.833 435.5,270.5C 434.833,270.5 434.167,270.5 433.5,270.5C 433.5,267.167 433.5,263.833 433.5,260.5 Z"/></g>
<g><path style="opacity:0.951" fill="#f4f8fa" d="M 265.5,269.5 C 268.59,268.83 270.257,269.997 270.5,273C 267.73,284.556 260.397,290.723 248.5,291.5C 248.927,280.078 254.593,272.745 265.5,269.5 Z"/></g>
<g><path style="opacity:0.999" fill="#a2b0c1" d="M 185.5,269.5 C 199.197,270.53 206.53,277.864 207.5,291.5C 193.887,290.554 186.554,283.22 185.5,269.5 Z"/></g>
<g><path style="opacity:0.979" fill="#e1f9fb" d="M 144.5,332.5 C 157.793,333.293 164.959,340.293 166,353.5C 155.883,353.917 148.883,349.25 145,339.5C 144.503,337.19 144.337,334.857 144.5,332.5 Z"/></g>
<g><path style="opacity:0.98" fill="#f8fafb" d="M 146.5,374.5 C 143.833,374.5 141.167,374.5 138.5,374.5C 134.176,369.676 129.676,365.009 125,360.5C 123.627,358.305 123.294,355.971 124,353.5C 131.021,352.839 136.688,355.506 141,361.5C 143.328,365.658 145.161,369.992 146.5,374.5 Z"/></g>
</svg>
